<svg version="1.1" xmlns="http://www.w3.org/2000/svg" xmlns:xlink="http://www.w3.org/1999/xlink" width="92px" height="92px" viewBox="0,0,256,256"><g fill="#b5b6b8" fill-rule="nonzero" stroke="none" stroke-width="1" stroke-linecap="butt" stroke-linejoin="miter" stroke-miterlimit="10" stroke-dasharray="" stroke-dashoffset="0" font-family="none" font-weight="none" font-size="none" text-anchor="none" style="mix-blend-mode: normal"><g transform="translate(0,0.06957) scale(2.78261,2.78261)"><path d="M70.7,64.3c1.8,1.8 1.8,4.6 0,6.4c-0.9,0.9 -2,1.3 -3.2,1.3c-1.2,0 -2.3,-0.4 -3.2,-1.3l-18.3,-18.3l-18.3,18.3c-0.9,0.9 -2,1.3 -3.2,1.3c-1.2,0 -2.3,-0.4 -3.2,-1.3c-1.8,-1.8 -1.8,-4.6 0,-6.4l18.3,-18.3l-18.3,-18.3c-1.8,-1.8 -1.8,-4.6 0,-6.4c1.8,-1.8 4.6,-1.8 6.4,0l18.3,18.3l18.3,-18.3c1.8,-1.8 4.6,-1.8 6.4,0c1.8,1.8 1.8,4.6 0,6.4l-18.3,18.3z" id="XMLID_732_"></path></g></g></svg>