<svg version="1.1" xmlns="http://www.w3.org/2000/svg" xmlns:xlink="http://www.w3.org/1999/xlink" width="92px" height="92px" viewBox="0,0,256,256"><g fill="#b5b6b8" fill-rule="nonzero" stroke="none" stroke-width="1" stroke-linecap="butt" stroke-linejoin="miter" stroke-miterlimit="10" stroke-dasharray="" stroke-dashoffset="0" font-family="none" font-weight="none" font-size="none" text-anchor="none" style="mix-blend-mode: normal"><g transform="translate(-0.05234,0) scale(2.78261,2.78261)"><path d="M89.1,6.1l-3.2,-3.2c-1.9,-1.9 -4.3,-2.9 -7,-2.9v0c-2.7,0 -5.1,1 -7,2.9l-63.2,63.3c-0.4,0.4 -0.7,0.8 -0.9,1.4l-7.5,18.9c-0.6,1.5 -0.3,3.2 0.9,4.3c0.7,0.8 1.8,1.2 2.8,1.2c0.5,0 1,-0.1 1.5,-0.3l19,-7.4c0.5,-0.2 1,-0.5 1.4,-0.9l63.3,-63.3c3.8,-3.8 3.8,-10.1 -0.1,-14zM14.8,71.7l5.6,5.6l-9.3,3.6zM83.4,14.5l-55.2,55.2l-5.8,-5.8l55.1,-55.3c0.5,-0.5 1.1,-0.6 1.4,-0.6c0.3,0 0.9,0.1 1.4,0.6l3.2,3.2c0.7,0.7 0.7,1.9 -0.1,2.7z" id="XMLID_2170_"></path></g></g></svg>