<svg version="1.1" xmlns="http://www.w3.org/2000/svg" xmlns:xlink="http://www.w3.org/1999/xlink" width="92px" height="92px" viewBox="0,0,256,256"><g fill="#b5b6b8" fill-rule="nonzero" stroke="none" stroke-width="1" stroke-linecap="butt" stroke-linejoin="miter" stroke-miterlimit="10" stroke-dasharray="" stroke-dashoffset="0" font-family="none" font-weight="none" font-size="none" text-anchor="none" style="mix-blend-mode: normal"><g transform="scale(2.78261,2.78261)"><path d="M91.3,43.8c-0.7,-1 -16.9,-24.8 -45.3,-24.8c-28.4,0 -44.6,23.8 -45.3,24.8c-0.9,1.3 -0.9,3.1 0,4.5c0.7,0.9 16.9,24.7 45.3,24.7c28.4,0 44.6,-23.8 45.3,-24.8c0.9,-1.3 0.9,-3.1 0,-4.4zM46,65c-19.3,0 -32.5,-13.6 -37,-19c4.5,-5.5 17.6,-19 37,-19c19.3,0 32.5,13.6 37,19c-4.6,5.5 -17.7,19 -37,19zM48.3,29.6c-4.4,-0.6 -8.7,0.5 -12.3,3.2v0c-7.3,5.5 -8.8,15.9 -3.3,23.2c2.7,3.6 6.5,5.8 10.9,6.5c0.8,0.1 1.6,0.2 2.3,0.2c3.6,0 7,-1.2 9.9,-3.3c7.3,-5.5 8.8,-15.9 3.3,-23.2c-2.5,-3.7 -6.4,-6 -10.8,-6.6zM52.3,54.5c-2.2,1.7 -5,2.4 -7.8,2c-2.8,-0.4 -5.3,-1.9 -7,-4.1c-3.4,-4.7 -2.5,-11.4 2.2,-14.9c2.2,-1.7 5,-2.4 7.8,-2c2.8,0.4 5.3,1.9 7,4.1c3.4,4.7 2.5,11.4 -2.2,14.9zM51.9,40c0.8,0.7 1.2,1.8 1.2,2.8c0,1 -0.4,2.1 -1.2,2.8c-0.7,0.7 -1.8,1.2 -2.8,1.2c-1.1,0 -2.1,-0.4 -2.8,-1.2c-0.8,-0.8 -1.2,-1.8 -1.2,-2.8c0,-1.1 0.4,-2.1 1.2,-2.8c0.7,-0.8 1.8,-1.2 2.8,-1.2c1.1,0.1 2.1,0.5 2.8,1.2z" id="XMLID_1239_"></path></g></g></svg>