<svg version="1.1" xmlns="http://www.w3.org/2000/svg" xmlns:xlink="http://www.w3.org/1999/xlink" width="92px" height="92px" viewBox="0,0,256,256"><g fill="#b5b6b8" fill-rule="nonzero" stroke="none" stroke-width="1" stroke-linecap="butt" stroke-linejoin="miter" stroke-miterlimit="10" stroke-dasharray="" stroke-dashoffset="0" font-family="none" font-weight="none" font-size="none" text-anchor="none" style="mix-blend-mode: normal"><g transform="translate(0,-1.3913) scale(2.78261,2.78261)"><path d="M78.4,30.4l-3.1,57.8c-0.1,2.1 -1.9,3.8 -4,3.8h-50.6c-2.1,0 -3.9,-1.7 -4,-3.8l-3.1,-57.8c-0.1,-2.2 1.6,-4.1 3.8,-4.2c2.2,-0.1 4.1,1.6 4.2,3.8l2.9,54h43.1l2.9,-54c0.1,-2.2 2,-3.9 4.2,-3.8c2.1,0.1 3.8,2 3.7,4.2zM89,17c0,2.2 -1.8,4 -4,4h-78c-2.2,0 -4,-1.8 -4,-4c0,-2.2 1.8,-4 4,-4h22v-9c0,-1.9 1.3,-3 3.2,-3h27.6c1.9,0 3.2,1.1 3.2,3v9h22c2.2,0 4,1.8 4,4zM36,13h20v-5h-20zM37.7,78v0c2,0 3.5,-1.9 3.5,-3.8l-1,-43.2c0,-1.9 -1.6,-3.5 -3.6,-3.5c-1.9,0 -3.5,1.6 -3.4,3.6l1,43.3c0,1.9 1.6,3.6 3.5,3.6zM54.2,78c1.9,0 3.5,-1.6 3.5,-3.5l1,-43.2c0,-1.9 -1.5,-3.6 -3.4,-3.6c-2,0 -3.5,1.5 -3.6,3.4l-1,43.2c-0.1,2 1.5,3.7 3.5,3.7c-0.1,0 -0.1,0 0,0z" id="XMLID_1348_"></path></g></g></svg>